<svg width="97" height="96" viewBox="0 0 97 96" fill="none" xmlns="http://www.w3.org/2000/svg">
<rect x="2" y="2" width="93" height="92" rx="10" fill="#2D3338"/>
<path d="M27.16 80.1328C27.16 81.7134 25.8772 83.0063 24.2982 82.9356C21.5311 82.8118 19.4874 82.4934 18.1671 81.9804C16.4749 81.3525 15.387 80.0966 14.9035 78.2128C14.42 76.3774 14.1783 73.117 14.1783 68.4317V58.2158C14.1783 55.5109 14.0574 53.5547 13.8157 52.3472C13.6223 51.0913 13.2355 50.246 12.6553 49.8113C12.622 49.7864 12.5876 49.7621 12.5522 49.7386C11.3193 48.9189 9.97192 47.959 9.97192 46.4785V46.4785C9.97192 44.998 11.3193 44.0381 12.5522 43.2184C12.5876 43.1949 12.622 43.1706 12.6553 43.1457C13.2355 42.7109 13.6223 41.8657 13.8157 40.6098C14.0574 39.354 14.1783 37.3736 14.1783 34.6687V24.5253C14.1783 19.84 14.42 16.5796 14.9035 14.7442C15.387 12.8604 16.4749 11.6045 18.1671 10.9766C19.4874 10.4636 21.5311 10.1452 24.2982 10.0214C25.8772 9.95072 27.16 11.2436 27.16 12.8242V12.8242C27.16 14.4047 25.8361 15.5312 24.3233 15.9891C24.0677 16.0665 23.8529 16.1587 23.6788 16.2657C23.0503 16.6038 22.6635 17.3283 22.5185 18.4392C22.3734 19.5019 22.3009 21.5306 22.3009 24.5253V35.8279C22.3009 39.2574 21.8899 41.7932 21.068 43.4355V43.4355C20.5362 44.498 20.5362 48.3865 21.068 49.4491V49.4491C21.8899 51.0913 22.3009 53.6272 22.3009 57.0566V68.4317C22.3009 71.4747 22.3734 73.5275 22.5185 74.5902C22.6635 75.6528 23.0503 76.3532 23.6788 76.6913C23.8529 76.7983 24.0677 76.8905 24.3233 76.9679C25.8361 77.4258 27.16 78.5523 27.16 80.1328V80.1328Z" fill="#F6FAFF"/>
<path d="M67.0841 80.1328C67.0841 81.7134 68.3668 83.0063 69.9458 82.9356C72.7129 82.8118 74.7566 82.4934 76.077 81.9804C77.7692 81.3525 78.857 80.0966 79.3405 78.2128C79.824 76.3774 80.0657 73.117 80.0657 68.4317V58.2158C80.0657 55.5109 80.1866 53.5547 80.4284 52.3472C80.6218 51.0913 81.0085 50.246 81.5887 49.8113C81.622 49.7864 81.6564 49.7621 81.6918 49.7386C82.9247 48.9189 84.2721 47.959 84.2721 46.4785V46.4785C84.2721 44.998 82.9247 44.0381 81.6918 43.2184C81.6564 43.1949 81.622 43.1706 81.5887 43.1457C81.0085 42.7109 80.6218 41.8657 80.4284 40.6098C80.1866 39.354 80.0657 37.3736 80.0657 34.6687V24.5253C80.0657 19.84 79.824 16.5796 79.3405 14.7442C78.857 12.8604 77.7692 11.6045 76.077 10.9766C74.7566 10.4636 72.7129 10.1452 69.9458 10.0214C68.3668 9.95072 67.0841 11.2436 67.0841 12.8242V12.8242C67.0841 14.4047 68.4079 15.5312 69.9207 15.9891C70.1763 16.0665 70.3911 16.1587 70.5652 16.2657C71.1937 16.6038 71.5805 17.3283 71.7255 18.4392C71.8706 19.5019 71.9431 21.5306 71.9431 24.5253V35.8279C71.9431 39.2574 72.3541 41.7932 73.176 43.4355V43.4355C73.7078 44.498 73.7078 48.3865 73.176 49.4491V49.4491C72.3541 51.0913 71.9431 53.6272 71.9431 57.0566V68.4317C71.9431 71.4747 71.8706 73.5275 71.7255 74.5902C71.5805 75.6528 71.1937 76.3532 70.5652 76.6913C70.3911 76.7983 70.1763 76.8905 69.9207 76.9679C68.4079 77.4258 67.0841 78.5523 67.0841 80.1328V80.1328Z" fill="#F6FAFF"/>
<path d="M32.0635 17.2C32.0635 15.5431 33.4066 14.2 35.0635 14.2H46.9435C52.8101 14.2 57.1568 15.5333 59.9835 18.2C62.8101 20.8133 64.2235 24.8933 64.2235 30.44C64.2235 33.6288 63.7632 36.2661 62.8426 38.3518C61.9859 40.2929 62.1908 47.7787 63.3435 49.56V49.56C65.1035 52.2267 65.9835 55.88 65.9835 60.52C65.9835 66.3333 64.5968 70.8667 61.8235 74.12C59.1035 77.3733 54.9435 79 49.3435 79H35.0635C33.4066 79 32.0635 77.6569 32.0635 76V17.2ZM46.4635 41.24C50.1968 41.24 52.7835 40.44 54.2235 38.84C55.6635 37.1867 56.3835 34.3867 56.3835 30.44C56.3835 27.56 55.9301 25.4533 55.0235 24.12C54.1701 22.7333 52.8635 21.8533 51.1035 21.48C49.3435 21.1067 46.7301 20.92 43.2635 20.92V20.92C42.0705 20.92 41.1035 21.8871 41.1035 23.08V38.24C41.1035 39.8969 42.4466 41.24 44.1035 41.24H46.4635ZM47.1835 72.52C49.8501 72.52 51.9035 72.12 53.3435 71.32C54.8368 70.4667 55.8768 69.1867 56.4635 67.48C57.0501 65.7733 57.3435 63.4533 57.3435 60.52C57.3435 56.36 56.4901 53.2667 54.7835 51.24C53.0768 49.16 50.3035 48.12 46.4635 48.12H44.1035C42.4466 48.12 41.1035 49.4631 41.1035 51.12V69.52C41.1035 71.1769 42.4466 72.52 44.1035 72.52H47.1835Z" fill="#F6FAFF"/>
</svg>
